# xmcd
#
# Track frame offsets:
#	150
#	14740
#	32179
#	47185
#	65616
#	83107
#	98601
#	116229
#	134523
#	151108
#	165556
#	178435
#	195095
#	213120
#	228872
#	245427
#	264898
#	280510
#	295794
#	313515
#
# Disc length: 4429 seconds
#
# Revision: 2
# Processed by: cddbd v1.5.2PL0 Copyright (c) Steve Scherf et al.
# Submitted via: audiograbber 1.83.01
#
DISCID=10114b14
DTITLE=Ya' Boy - Rookie Of The Year
DYEAR=2005
DGENRE=Rap
TTITLE0=Ya' Boy - Introduction
TTITLE1=Ya' Boy, Bailey - Bust Back
TTITLE2=Ya' Boy, E-40, Turf Talk - We So Cold
TTITLE3=Ya' Boy, Selau - Right Here
TTITLE4=Ya' Boy - Step Ya Game Up
TTITLE5=Ya' Boy, Clyde Carosn - Fly As This
TTITLE6=Ya' Boy, Messy Marv - Bigger The Drama
TTITLE7=Ya' Boy, Bailey - Bad Company
TTITLE8=Ya' Boy - Wut's Good
TTITLE9=Ya' Boy - On Fire
TTITLE10=Ya' Boy - Turf 2 Tha Club
TTITLE11=Ya' Boy, San Quinn - Get That Weight Off
TTITLE12=Ya' Boy - Not For Free
TTITLE13=Ya' Boy, Big Rich - Get Down
TTITLE14=Ya' Boy, San Quinn, AP.9 - Somethin' To Rap About
TTITLE15=Ya' Boy - It's Easy
TTITLE16=Ya' Boy, Joy - How U Want It
TTITLE17=Ya' Boy, Blue Chip - Cannon
TTITLE18=Ya' Boy, Roscoe - Tha Hardest
TTITLE19=Ya' Boy, Goldie, Boo Banger, R-Geezy, Infamous JD - Run Yo' Mouth
EXTD=www.RapMusicGuide.com
EXTT0=
EXTT1=
EXTT2=
EXTT3=
EXTT4=
EXTT5=
EXTT6=
EXTT7=
EXTT8=
EXTT9=
EXTT10=
EXTT11=
EXTT12=
EXTT13=
EXTT14=
EXTT15=
EXTT16=
EXTT17=
EXTT18=
EXTT19=
PLAYORDER=
